<svg width="12" height="12" viewBox="0 0 12 12" fill="none" xmlns="http://www.w3.org/2000/svg">
<path d="M10.5 6C10.5 6.09946 10.4605 6.19484 10.3902 6.26517C10.3198 6.33549 10.2245 6.375 10.125 6.375H1.875C1.77554 6.375 1.68016 6.33549 1.60984 6.26517C1.53951 6.19484 1.5 6.09946 1.5 6C1.5 5.90054 1.53951 5.80516 1.60984 5.73484C1.68016 5.66451 1.77554 5.625 1.875 5.625H10.125C10.2245 5.625 10.3198 5.66451 10.3902 5.73484C10.4605 5.80516 10.5 5.90054 10.5 6ZM1.875 3.375H10.125C10.2245 3.375 10.3198 3.33549 10.3902 3.26516C10.4605 3.19484 10.5 3.09946 10.5 3C10.5 2.90054 10.4605 2.80516 10.3902 2.73484C10.3198 2.66451 10.2245 2.625 10.125 2.625H1.875C1.77554 2.625 1.68016 2.66451 1.60984 2.73484C1.53951 2.80516 1.5 2.90054 1.5 3C1.5 3.09946 1.53951 3.19484 1.60984 3.26516C1.68016 3.33549 1.77554 3.375 1.875 3.375ZM10.125 8.625H1.875C1.77554 8.625 1.68016 8.66451 1.60984 8.73483C1.53951 8.80516 1.5 8.90054 1.5 9C1.5 9.09946 1.53951 9.19484 1.60984 9.26517C1.68016 9.33549 1.77554 9.375 1.875 9.375H10.125C10.2245 9.375 10.3198 9.33549 10.3902 9.26517C10.4605 9.19484 10.5 9.09946 10.5 9C10.5 8.90054 10.4605 8.80516 10.3902 8.73483C10.3198 8.66451 10.2245 8.625 10.125 8.625Z" fill="black"/>
</svg>
